Coordinates
version=1
nRows=14
nColumns=24
inDegrees=yes

Units are S.I. units (second, meters, Newtons, ...)
Angles are in degrees.

endheader
time	pelvis_tilt	pelvis_list	pelvis_rotation	pelvis_tx	pelvis_ty	pelvis_tz	hip_flexion_r	hip_adduction_r	hip_rotation_r	knee_angle_r	ankle_angle_r	subtalar_angle_r	mtp_angle_r	hip_flexion_l	hip_adduction_l	hip_rotation_l	knee_angle_l	ankle_angle_l	subtalar_angle_l	mtp_angle_l	lumbar_extension	lumbar_bending	lumbar_rotation
      6.83000000	     92.99415549	     16.79259893	    -93.60545723	      0.35289542	      0.29274561	      1.01746149	     -4.04204174	    -11.89358679	      0.16114786	    -48.95445508	    -33.15663289	     -1.74545602	    -25.17324631	    -12.59136315	    -16.63321633	    -10.63493069	    -60.28825666	    -23.43414025	     -0.14557499	     73.45799169	      0.00000000	      0.00000000	      0.00000000
      6.84000000	     93.00145876	     16.78182517	    -93.59887909	      0.35287476	      0.29274050	      1.01744866	     -4.05306120	    -11.89729418	      0.16338642	    -48.96732071	    -33.08964700	     -1.74545602	    -25.17324631	    -12.59711061	    -16.63150373	    -10.63077061	    -60.28514057	    -23.43396453	     -0.14557499	     73.45799169	      0.00000000	      0.00000000	      0.00000000
      6.85000000	     93.00884589	     16.77017336	    -93.59366510	      0.35285632	      0.29274372	      1.01741850	     -4.06595742	    -11.90251938	      0.16364329	    -48.98171851	    -33.02058071	     -1.74545602	    -25.17324631	    -12.60403672	    -16.62884472	    -10.62541510	    -60.28307960	    -23.43553506	     -0.14557499	     73.45799169	      0.00000000	      0.00000000	      0.00000000
      6.86000000	     93.01441452	     16.76006263	    -93.59063018	      0.35284328	      0.29274294	      1.01739643	     -4.07927200	    -11.90737884	      0.16383860	    -48.99672674	    -32.95277396	     -1.74545602	    -25.17324631	    -12.61027358	    -16.62618397	    -10.62093306	    -60.28209800	    -23.43824491	     -0.14557499	     73.45799169	      0.00000000	      0.00000000	      0.00000000
      6.87000000	     93.01719630	     16.75327642	    -93.58943812	      0.35283608	      0.29273614	      1.01739324	     -4.09101238	    -11.91072076	      0.16559169	    -49.01079473	    -32.89621272	     -1.74545602	    -25.17324631	    -12.61453314	    -16.62414675	    -10.61845522	    -60.28211318	    -23.44122509	     -0.14557499	     73.45799169	      0.00000000	      0.00000000	      0.00000000
      6.88000000	     93.01747196	     16.75088305	    -93.58945614	      0.35283711	      0.29273323	      1.01740573	     -4.09966790	    -11.91226501	      0.16918451	    -49.02289201	    -32.86668887	     -1.74545602	    -25.17324631	    -12.61618992	    -16.62280547	    -10.61800204	    -60.28276826	    -23.44358886	     -0.14557499	     73.45799169	      0.00000000	      0.00000000	      0.00000000
      6.89000000	     93.01638006	     16.75270159	    -93.59017775	      0.35284712	      0.29274399	      1.01742105	     -4.10399288	    -11.91286533	      0.17302322	    -49.03291309	    -32.88308757	     -1.74545602	    -25.17324631	    -12.61546658	    -16.62180015	    -10.61870804	    -60.28342068	    -23.44473644	     -0.14557499	     73.45799169	      0.00000000	      0.00000000	      0.00000000
      6.90000000	     93.01509730	     16.75680504	    -93.59104699	      0.35285587	      0.29276650	      1.01742402	     -4.10203181	    -11.91468153	      0.17400923	    -49.04133592	    -32.96303484	     -1.74545602	    -25.17324631	    -12.61367681	    -16.62074716	    -10.61925236	    -60.28333437	    -23.44460873	     -0.14557499	     73.45799169	      0.00000000	      0.00000000	      0.00000000
      6.91000000	     93.01402789	     16.75979179	    -93.59123516	      0.35284800	      0.29278704	      1.01741564	     -4.09084635	    -11.92066647	      0.16875096	    -49.04873271	    -33.11778609	     -1.74545602	    -25.17324631	    -12.61297564	    -16.61945809	    -10.61840873	    -60.28196176	    -23.44375848	     -0.14557499	     73.45799169	      0.00000000	      0.00000000	      0.00000000
      6.92000000	     93.01262726	     16.75845557	    -93.58993045	      0.35282173	      0.29279383	      1.01741801	     -4.06811015	    -11.93317806	      0.15507130	    -49.05581802	    -33.34775102	     -1.74545602	    -25.17324631	    -12.61543287	    -16.61780707	    -10.61556366	    -60.27914647	    -23.44316759	     -0.14557499	     73.45799169	      0.00000000	      0.00000000	      0.00000000
      6.93000000	     93.01012479	     16.75223307	    -93.58708126	      0.35278755	      0.29279409	      1.01744212	     -4.03485263	    -11.95244951	      0.13304988	    -49.06406107	    -33.64019626	     -1.74545602	    -25.17324631	    -12.62195324	    -16.61561261	    -10.61094551	    -60.27510558	    -23.44387411	     -0.14557499	     73.45799169	      0.00000000	      0.00000000	      0.00000000
      6.94000000	     93.00631369	     16.74377998	    -93.58360637	      0.35274827	      0.29280805	      1.01746306	     -3.99617317	    -11.97628925	      0.10509871	    -49.07573267	    -33.97021697	     -1.74545602	    -25.17324631	    -12.63189700	    -16.61281322	    -10.60542992	    -60.27025579	    -23.44659645	     -0.14557499	     73.45799169	      0.00000000	      0.00000000	      0.00000000
      6.95000000	     93.00156547	     16.73565821	    -93.58027082	      0.35270634	      0.29283749	      1.01747465	     -3.95769733	    -12.00140652	      0.07521112	    -49.09243856	    -34.30508171	     -1.74545602	    -25.17324631	    -12.64362113	    -16.60971619	    -10.60008888	    -60.26505226	    -23.45151256	     -0.14557499	     73.45799169	      0.00000000	      0.00000000	      0.00000000
      6.96000000	     92.99666863	     16.72830749	    -93.57721946	      0.35267527	      0.29286622	      1.01750397	     -3.92307769	    -12.02453872	      0.04768602	    -49.11428872	    -34.61090550	     -1.74545602	    -25.17324631	    -12.65524957	    -16.60688261	    -10.59580318	    -60.25990851	    -23.45821012	     -0.14557499	     73.45799169	      0.00000000	      0.00000000	      0.00000000
